<svg xmlns="http://www.w3.org/2000/svg" viewBox="0 0 512 512">
  <circle cx="256" cy="256" r="240" fill="#8e1212"/>
  <circle cx="256" cy="256" r="208" fill="#e8a6a6"/>
  <g fill="#8e1212">
    <circle cx="256" cy="32" r="16"/>
    <circle cx="256" cy="480" r="16"/>
    <circle cx="32" cy="256" r="16"/>
    <circle cx="480" cy="256" r="16"/>
    <circle cx="97.6" cy="97.6" r="16"/>
    <circle cx="414.4" cy="97.6" r="16"/>
    <circle cx="97.6" cy="414.4" r="16"/>
    <circle cx="414.4" cy="414.4" r="16"/>
    <path d="M256 112c8.837 0 16 7.163 16 16v115.373l67.314 67.313c6.249 6.249 6.249 16.379 0 22.627-6.248 6.249-16.378 6.249-22.627 0l-72-72A15.996 15.996 0 0 1 240 250V128c0-8.837 7.163-16 16-16Z"/>
  </g>
</svg>
